<svg width="129" height="142" viewBox="0 0 129 142" fill="none" xmlns="http://www.w3.org/2000/svg">
<path d="M15.6484 136C15.4922 135.695 15.3789 135.316 15.3086 134.863C14.4883 135.777 13.4219 136.234 12.1094 136.234C10.8672 136.234 9.83594 135.875 9.01562 135.156C8.20312 134.438 7.79688 133.531 7.79688 132.438C7.79688 131.094 8.29297 130.062 9.28516 129.344C10.2852 128.625 11.7266 128.262 13.6094 128.254H15.168V127.527C15.168 126.941 15.0156 126.473 14.7109 126.121C14.4141 125.77 13.9414 125.594 13.293 125.594C12.7227 125.594 12.2734 125.73 11.9453 126.004C11.625 126.277 11.4648 126.652 11.4648 127.129H8.07812C8.07812 126.395 8.30469 125.715 8.75781 125.09C9.21094 124.465 9.85156 123.977 10.6797 123.625C11.5078 123.266 12.4375 123.086 13.4688 123.086C15.0312 123.086 16.2695 123.48 17.1836 124.27C18.1055 125.051 18.5664 126.152 18.5664 127.574V133.07C18.5742 134.273 18.7422 135.184 19.0703 135.801V136H15.6484ZM12.8477 133.645C13.3477 133.645 13.8086 133.535 14.2305 133.316C14.6523 133.09 14.9648 132.789 15.168 132.414V130.234H13.9023C12.207 130.234 11.3047 130.82 11.1953 131.992L11.1836 132.191C11.1836 132.613 11.332 132.961 11.6289 133.234C11.9258 133.508 12.332 133.645 12.8477 133.645ZM32.582 129.777C32.582 131.73 32.1367 133.297 31.2461 134.477C30.3633 135.648 29.168 136.234 27.6602 136.234C26.3789 136.234 25.3438 135.789 24.5547 134.898V140.875H21.168V123.32H24.3086L24.4258 124.562C25.2461 123.578 26.3164 123.086 27.6367 123.086C29.1992 123.086 30.4141 123.664 31.2812 124.82C32.1484 125.977 32.582 127.57 32.582 129.602V129.777ZM29.1953 129.531C29.1953 128.352 28.9844 127.441 28.5625 126.801C28.1484 126.16 27.543 125.84 26.7461 125.84C25.6836 125.84 24.9531 126.246 24.5547 127.059V132.25C24.9688 133.086 25.707 133.504 26.7695 133.504C28.3867 133.504 29.1953 132.18 29.1953 129.531ZM46.1055 129.777C46.1055 131.73 45.6602 133.297 44.7695 134.477C43.8867 135.648 42.6914 136.234 41.1836 136.234C39.9023 136.234 38.8672 135.789 38.0781 134.898V140.875H34.6914V123.32H37.832L37.9492 124.562C38.7695 123.578 39.8398 123.086 41.1602 123.086C42.7227 123.086 43.9375 123.664 44.8047 124.82C45.6719 125.977 46.1055 127.57 46.1055 129.602V129.777ZM42.7188 129.531C42.7188 128.352 42.5078 127.441 42.0859 126.801C41.6719 126.16 41.0664 125.84 40.2695 125.84C39.207 125.84 38.4766 126.246 38.0781 127.059V132.25C38.4922 133.086 39.2305 133.504 40.293 133.504C41.9102 133.504 42.7188 132.18 42.7188 129.531ZM55.5625 136C55.4062 135.695 55.293 135.316 55.2227 134.863C54.4023 135.777 53.3359 136.234 52.0234 136.234C50.7812 136.234 49.75 135.875 48.9297 135.156C48.1172 134.438 47.7109 133.531 47.7109 132.438C47.7109 131.094 48.207 130.062 49.1992 129.344C50.1992 128.625 51.6406 128.262 53.5234 128.254H55.082V127.527C55.082 126.941 54.9297 126.473 54.625 126.121C54.3281 125.77 53.8555 125.594 53.207 125.594C52.6367 125.594 52.1875 125.73 51.8594 126.004C51.5391 126.277 51.3789 126.652 51.3789 127.129H47.9922C47.9922 126.395 48.2188 125.715 48.6719 125.09C49.125 124.465 49.7656 123.977 50.5938 123.625C51.4219 123.266 52.3516 123.086 53.3828 123.086C54.9453 123.086 56.1836 123.48 57.0977 124.27C58.0195 125.051 58.4805 126.152 58.4805 127.574V133.07C58.4883 134.273 58.6562 135.184 58.9844 135.801V136H55.5625ZM52.7617 133.645C53.2617 133.645 53.7227 133.535 54.1445 133.316C54.5664 133.09 54.8789 132.789 55.082 132.414V130.234H53.8164C52.1211 130.234 51.2188 130.82 51.1094 131.992L51.0977 132.191C51.0977 132.613 51.2461 132.961 51.543 133.234C51.8398 133.508 52.2461 133.645 52.7617 133.645ZM68.207 126.496C67.7461 126.434 67.3398 126.402 66.9883 126.402C65.707 126.402 64.8672 126.836 64.4688 127.703V136H61.082V123.32H64.2812L64.375 124.832C65.0547 123.668 65.9961 123.086 67.1992 123.086C67.5742 123.086 67.9258 123.137 68.2539 123.238L68.207 126.496ZM74.4531 130.914L73.2344 132.133V136H69.8477V118H73.2344V127.973L73.8906 127.129L77.1367 123.32H81.2031L76.6211 128.605L81.6016 136H77.7109L74.4531 130.914ZM85.8438 123.32L85.9492 124.738C86.8477 123.637 88.0625 123.086 89.5938 123.086C91.2266 123.086 92.3477 123.73 92.957 125.02C93.8477 123.73 95.1172 123.086 96.7656 123.086C98.1406 123.086 99.1641 123.488 99.8359 124.293C100.508 125.09 100.844 126.293 100.844 127.902V136H97.4453V127.914C97.4453 127.195 97.3047 126.672 97.0234 126.344C96.7422 126.008 96.2461 125.84 95.5352 125.84C94.5195 125.84 93.8164 126.324 93.4258 127.293L93.4375 136H90.0508V127.926C90.0508 127.191 89.9062 126.66 89.6172 126.332C89.3281 126.004 88.8359 125.84 88.1406 125.84C87.1797 125.84 86.4844 126.238 86.0547 127.035V136H82.668V123.32H85.8438ZM109.293 136.234C107.434 136.234 105.918 135.664 104.746 134.523C103.582 133.383 103 131.863 103 129.965V129.637C103 128.363 103.246 127.227 103.738 126.227C104.23 125.219 104.926 124.445 105.824 123.906C106.73 123.359 107.762 123.086 108.918 123.086C110.652 123.086 112.016 123.633 113.008 124.727C114.008 125.82 114.508 127.371 114.508 129.379V130.762H106.434C106.543 131.59 106.871 132.254 107.418 132.754C107.973 133.254 108.672 133.504 109.516 133.504C110.82 133.504 111.84 133.031 112.574 132.086L114.238 133.949C113.73 134.668 113.043 135.23 112.176 135.637C111.309 136.035 110.348 136.234 109.293 136.234ZM108.906 125.828C108.234 125.828 107.688 126.055 107.266 126.508C106.852 126.961 106.586 127.609 106.469 128.453H111.18V128.184C111.164 127.434 110.961 126.855 110.57 126.449C110.18 126.035 109.625 125.828 108.906 125.828Z" fill="white"/>
<path d="M15.6484 136L15.2035 136.228L15.3429 136.5H15.6484V136ZM15.3086 134.863L15.8027 134.787L15.6409 133.744L14.9365 134.529L15.3086 134.863ZM9.01562 135.156L8.68433 135.531L8.68612 135.532L9.01562 135.156ZM9.28516 129.344L8.99334 128.938L8.99183 128.939L9.28516 129.344ZM13.6094 128.254L13.6094 127.754L13.6073 127.754L13.6094 128.254ZM15.168 128.254V128.754H15.668V128.254H15.168ZM14.7109 126.121L14.3289 126.444L14.3331 126.449L14.7109 126.121ZM11.9453 126.004L11.6252 125.62L11.6207 125.624L11.9453 126.004ZM11.4648 127.129V127.629H11.9648V127.129H11.4648ZM8.07812 127.129H7.57812V127.629H8.07812V127.129ZM10.6797 123.625L10.8751 124.085L10.8787 124.084L10.6797 123.625ZM17.1836 124.27L16.8569 124.648L16.8603 124.651L17.1836 124.27ZM18.5664 133.07H18.0664L18.0664 133.074L18.5664 133.07ZM19.0703 135.801H19.5703V135.676L19.5118 135.566L19.0703 135.801ZM19.0703 136V136.5H19.5703V136H19.0703ZM14.2305 133.316L14.4607 133.76L14.467 133.757L14.2305 133.316ZM15.168 132.414L15.6076 132.652L15.668 132.541V132.414H15.168ZM15.168 130.234H15.668V129.734H15.168V130.234ZM11.1953 131.992L10.6975 131.946L10.6967 131.954L10.6962 131.963L11.1953 131.992ZM11.1836 132.191L10.6845 132.162L10.6836 132.177V132.191H11.1836ZM16.0933 135.772C15.9682 135.528 15.8674 135.204 15.8027 134.787L14.8145 134.94C14.8904 135.429 15.0162 135.863 15.2035 136.228L16.0933 135.772ZM14.9365 134.529C14.2181 135.33 13.2909 135.734 12.1094 135.734V136.734C13.5529 136.734 14.7585 136.225 15.6807 135.197L14.9365 134.529ZM12.1094 135.734C10.9705 135.734 10.0616 135.408 9.34513 134.78L8.68612 135.532C9.61027 136.342 10.7639 136.734 12.1094 136.734V135.734ZM9.34691 134.782C8.64271 134.159 8.29688 133.389 8.29688 132.438H7.29688C7.29688 133.673 7.76354 134.716 8.68434 135.531L9.34691 134.782ZM8.29688 132.438C8.29688 131.236 8.73006 130.363 9.57848 129.749L8.99183 128.939C7.85588 129.762 7.29688 130.951 7.29688 132.438H8.29688ZM9.57697 129.75C10.4586 129.116 11.7811 128.761 13.6114 128.754L13.6073 127.754C11.6721 127.762 10.1118 128.134 8.99334 128.938L9.57697 129.75ZM13.6094 128.754H15.168V127.754H13.6094V128.754ZM15.668 128.254V127.527H14.668V128.254H15.668ZM15.668 127.527C15.668 126.853 15.4911 126.258 15.0888 125.794L14.3331 126.449C14.5402 126.688 14.668 127.029 14.668 127.527H15.668ZM15.093 125.799C14.6669 125.294 14.026 125.094 13.293 125.094V126.094C13.8569 126.094 14.1612 126.245 14.3289 126.444L15.093 125.799ZM13.293 125.094C12.6451 125.094 12.0694 125.25 11.6252 125.62L12.2654 126.388C12.4774 126.211 12.8002 126.094 13.293 126.094V125.094ZM11.6207 125.624C11.1737 126.005 10.9648 126.528 10.9648 127.129H11.9648C11.9648 126.777 12.0763 126.549 12.2699 126.384L11.6207 125.624ZM11.4648 126.629H8.07812V127.629H11.4648V126.629ZM8.57812 127.129C8.57812 126.506 8.768 125.928 9.16262 125.383L8.35301 124.796C7.84138 125.502 7.57812 126.284 7.57812 127.129H8.57812ZM9.16262 125.383C9.5541 124.843 10.1166 124.407 10.8751 124.085L10.4843 123.165C9.58654 123.546 8.86777 124.086 8.35301 124.796L9.16262 125.383ZM10.8787 124.084C11.6357 123.755 12.4963 123.586 13.4688 123.586V122.586C12.3787 122.586 11.3799 122.776 10.4806 123.166L10.8787 124.084ZM13.4688 123.586C14.9473 123.586 16.0576 123.958 16.8569 124.648L17.5103 123.891C16.4815 123.003 15.1152 122.586 13.4688 122.586V123.586ZM16.8603 124.651C17.6499 125.32 18.0664 126.271 18.0664 127.574H19.0664C19.0664 126.034 18.561 124.781 17.5069 123.888L16.8603 124.651ZM18.0664 127.574V133.07H19.0664V127.574H18.0664ZM18.0664 133.074C18.0744 134.307 18.2446 135.313 18.6288 136.035L19.5118 135.566C19.2398 135.054 19.074 134.24 19.0664 133.067L18.0664 133.074ZM18.5703 135.801V136H19.5703V135.801H18.5703ZM19.0703 135.5H15.6484V136.5H19.0703V135.5ZM12.8477 134.145C13.4235 134.145 13.9639 134.018 14.4606 133.76L14.0003 132.873C13.6533 133.052 13.2719 133.145 12.8477 133.145V134.145ZM14.467 133.757C14.964 133.49 15.3524 133.123 15.6076 132.652L14.7283 132.176C14.5773 132.455 14.3407 132.69 13.9939 132.876L14.467 133.757ZM15.668 132.414V130.234H14.668V132.414H15.668ZM15.168 129.734H13.9023V130.734H15.168V129.734ZM13.9023 129.734C13.0091 129.734 12.2483 129.887 11.6818 130.254C11.0892 130.639 10.7648 131.224 10.6975 131.946L11.6931 132.039C11.7352 131.589 11.9167 131.294 12.2264 131.093C12.5623 130.875 13.1003 130.734 13.9023 130.734V129.734ZM10.6962 131.963L10.6845 132.162L11.6827 132.221L11.6944 132.022L10.6962 131.963ZM10.6836 132.191C10.6836 132.746 10.8854 133.229 11.2902 133.602L11.9676 132.867C11.7787 132.693 11.6836 132.481 11.6836 132.191H10.6836ZM11.2902 133.602C11.7028 133.982 12.2426 134.145 12.8477 134.145V133.145C12.4215 133.145 12.1487 133.033 11.9676 132.867L11.2902 133.602ZM31.2461 134.477L30.847 134.175L30.8467 134.176L31.2461 134.477ZM24.5547 134.898L24.9289 134.567L24.0547 133.58V134.898H24.5547ZM24.5547 140.875V141.375H25.0547V140.875H24.5547ZM21.168 140.875H20.668V141.375H21.168V140.875ZM21.168 123.32V122.82H20.668V123.32H21.168ZM24.3086 123.32L24.8064 123.273L24.7636 122.82H24.3086V123.32ZM24.4258 124.562L23.928 124.609L24.0408 125.805L24.8099 124.883L24.4258 124.562ZM28.5625 126.801L28.1426 127.072L28.1449 127.076L28.5625 126.801ZM24.5547 127.059L24.1058 126.838L24.0547 126.943V127.059H24.5547ZM24.5547 132.25H24.0547V132.367L24.1066 132.472L24.5547 132.25ZM32.082 129.777C32.082 131.657 31.6539 133.107 30.847 134.175L31.6451 134.778C32.6196 133.487 33.082 131.804 33.082 129.777H32.082ZM30.8467 134.176C30.0614 135.218 29.0161 135.734 27.6602 135.734V136.734C29.3199 136.734 30.6651 136.079 31.6455 134.777L30.8467 134.176ZM27.6602 135.734C26.5096 135.734 25.6152 135.341 24.9289 134.567L24.1804 135.23C25.0723 136.237 26.2482 136.734 27.6602 136.734V135.734ZM24.0547 134.898V140.875H25.0547V134.898H24.0547ZM24.5547 140.375H21.168V141.375H24.5547V140.375ZM21.668 140.875V123.32H20.668V140.875H21.668ZM21.168 123.82H24.3086V122.82H21.168V123.82ZM23.8108 123.367L23.928 124.609L24.9236 124.516L24.8064 123.273L23.8108 123.367ZM24.8099 124.883C25.5319 124.016 26.4596 123.586 27.6367 123.586V122.586C26.1732 122.586 24.9603 123.14 24.0417 124.242L24.8099 124.883ZM27.6367 123.586C29.0566 123.586 30.117 124.101 30.8813 125.12L31.6812 124.52C30.7111 123.227 29.3418 122.586 27.6367 122.586V123.586ZM30.8813 125.12C31.6619 126.161 32.082 127.636 32.082 129.602H33.082C33.082 127.505 32.635 125.792 31.6812 124.52L30.8813 125.12ZM32.082 129.602V129.777H33.082V129.602H32.082ZM29.6953 129.531C29.6953 128.303 29.4774 127.281 28.9801 126.526L28.1449 127.076C28.4913 127.602 28.6953 128.401 28.6953 129.531H29.6953ZM28.9824 126.529C28.4714 125.739 27.7035 125.34 26.7461 125.34V126.34C27.3824 126.34 27.8255 126.582 28.1426 127.072L28.9824 126.529ZM26.7461 125.34C26.1524 125.34 25.6154 125.453 25.1583 125.708C24.6965 125.964 24.346 126.349 24.1058 126.838L25.0036 127.279C25.1618 126.956 25.3757 126.731 25.6444 126.581C25.9178 126.429 26.2773 126.34 26.7461 126.34V125.34ZM24.0547 127.059V132.25H25.0547V127.059H24.0547ZM24.1066 132.472C24.3535 132.97 24.7078 133.362 25.1726 133.626C25.6336 133.887 26.1734 134.004 26.7695 134.004V133.004C26.3031 133.004 25.9426 132.912 25.6653 132.755C25.3918 132.601 25.17 132.366 25.0027 132.028L24.1066 132.472ZM26.7695 134.004C27.7434 134.004 28.5159 133.59 29.0156 132.771C29.4908 131.993 29.6953 130.89 29.6953 129.531H28.6953C28.6953 130.821 28.4955 131.704 28.1621 132.25C27.8532 132.756 27.4129 133.004 26.7695 133.004V134.004ZM44.7695 134.477L44.3705 134.175L44.3702 134.176L44.7695 134.477ZM38.0781 134.898L38.4524 134.567L37.5781 133.58V134.898H38.0781ZM38.0781 140.875V141.375H38.5781V140.875H38.0781ZM34.6914 140.875H34.1914V141.375H34.6914V140.875ZM34.6914 123.32V122.82H34.1914V123.32H34.6914ZM37.832 123.32L38.3298 123.273L38.2871 122.82H37.832V123.32ZM37.9492 124.562L37.4514 124.609L37.5643 125.805L38.3333 124.883L37.9492 124.562ZM42.0859 126.801L41.666 127.072L41.6684 127.076L42.0859 126.801ZM38.0781 127.059L37.6292 126.838L37.5781 126.943V127.059H38.0781ZM38.0781 132.25H37.5781V132.367L37.6301 132.472L38.0781 132.25ZM45.6055 129.777C45.6055 131.657 45.1773 133.107 44.3705 134.175L45.1686 134.778C46.143 133.487 46.6055 131.804 46.6055 129.777H45.6055ZM44.3702 134.176C43.5849 135.218 42.5395 135.734 41.1836 135.734V136.734C42.8433 136.734 44.1886 136.079 45.1689 134.777L44.3702 134.176ZM41.1836 135.734C40.0331 135.734 39.1386 135.341 38.4524 134.567L37.7039 135.23C38.5958 136.237 39.7716 136.734 41.1836 136.734V135.734ZM37.5781 134.898V140.875H38.5781V134.898H37.5781ZM38.0781 140.375H34.6914V141.375H38.0781V140.375ZM35.1914 140.875V123.32H34.1914V140.875H35.1914ZM34.6914 123.82H37.832V122.82H34.6914V123.82ZM37.3342 123.367L37.4514 124.609L38.447 124.516L38.3298 123.273L37.3342 123.367ZM38.3333 124.883C39.0554 124.016 39.983 123.586 41.1602 123.586V122.586C39.6967 122.586 38.4837 123.14 37.5651 124.242L38.3333 124.883ZM41.1602 123.586C42.5801 123.586 43.6405 124.101 44.4047 125.12L45.2047 124.52C44.2345 123.227 42.8652 122.586 41.1602 122.586V123.586ZM44.4047 125.12C45.1853 126.161 45.6055 127.636 45.6055 129.602H46.6055C46.6055 127.505 46.1584 125.792 45.2047 124.52L44.4047 125.12ZM45.6055 129.602V129.777H46.6055V129.602H45.6055ZM43.2188 129.531C43.2188 128.303 43.0009 127.281 42.5035 126.526L41.6684 127.076C42.0148 127.602 42.2188 128.401 42.2188 129.531H43.2188ZM42.5059 126.529C41.9948 125.739 41.227 125.34 40.2695 125.34V126.34C40.9058 126.34 41.3489 126.582 41.666 127.072L42.5059 126.529ZM40.2695 125.34C39.6758 125.34 39.1389 125.453 38.6818 125.708C38.22 125.964 37.8694 126.349 37.6292 126.838L38.5271 127.279C38.6853 126.956 38.8992 126.731 39.1678 126.581C39.4412 126.429 39.8007 126.34 40.2695 126.34V125.34ZM37.5781 127.059V132.25H38.5781V127.059H37.5781ZM37.6301 132.472C37.8769 132.97 38.2312 133.362 38.6961 133.626C39.157 133.887 39.6969 134.004 40.293 134.004V133.004C39.8266 133.004 39.466 132.912 39.1887 132.755C38.9152 132.601 38.6934 132.366 38.5262 132.028L37.6301 132.472ZM40.293 134.004C41.2668 134.004 42.0394 133.59 42.539 132.771C43.0142 131.993 43.2188 130.89 43.2188 129.531H42.2188C42.2188 130.821 42.019 131.704 41.6856 132.25C41.3767 132.756 40.9363 133.004 40.293 133.004V134.004ZM55.5625 136L55.1176 136.228L55.257 136.5H55.5625V136ZM55.2227 134.863L55.7167 134.787L55.555 133.744L54.8505 134.529L55.2227 134.863ZM48.9297 135.156L48.5984 135.531L48.6002 135.532L48.9297 135.156ZM49.1992 129.344L48.9074 128.938L48.9059 128.939L49.1992 129.344ZM53.5234 128.254V127.754L53.5214 127.754L53.5234 128.254ZM55.082 128.254V128.754H55.582V128.254H55.082ZM54.625 126.121L54.243 126.444L54.2472 126.449L54.625 126.121ZM51.8594 126.004L51.5393 125.62L51.5347 125.624L51.8594 126.004ZM51.3789 127.129V127.629H51.8789V127.129H51.3789ZM47.9922 127.129H47.4922V127.629H47.9922V127.129ZM50.5938 123.625L50.7891 124.085L50.7928 124.084L50.5938 123.625ZM57.0977 124.27L56.7709 124.648L56.7744 124.651L57.0977 124.27ZM58.4805 133.07H57.9805L57.9805 133.074L58.4805 133.07ZM58.9844 135.801H59.4844V135.676L59.4259 135.566L58.9844 135.801ZM58.9844 136V136.5H59.4844V136H58.9844ZM54.1445 133.316L54.3747 133.76L54.3811 133.757L54.1445 133.316ZM55.082 132.414L55.5217 132.652L55.582 132.541V132.414H55.082ZM55.082 130.234H55.582V129.734H55.082V130.234ZM51.1094 131.992L50.6115 131.946L50.6107 131.954L50.6102 131.963L51.1094 131.992ZM51.0977 132.191L50.5985 132.162L50.5977 132.177V132.191H51.0977ZM56.0074 135.772C55.8822 135.528 55.7815 135.204 55.7167 134.787L54.7286 134.94C54.8045 135.429 54.9303 135.863 55.1176 136.228L56.0074 135.772ZM54.8505 134.529C54.1322 135.33 53.2049 135.734 52.0234 135.734V136.734C53.4669 136.734 54.6725 136.225 55.5948 135.197L54.8505 134.529ZM52.0234 135.734C50.8845 135.734 49.9757 135.408 49.2592 134.78L48.6002 135.532C49.5243 136.342 50.678 136.734 52.0234 136.734V135.734ZM49.261 134.782C48.5568 134.159 48.2109 133.389 48.2109 132.438H47.2109C47.2109 133.673 47.6776 134.716 48.5984 135.531L49.261 134.782ZM48.2109 132.438C48.2109 131.236 48.6441 130.363 49.4925 129.749L48.9059 128.939C47.7699 129.762 47.2109 130.951 47.2109 132.438H48.2109ZM49.491 129.75C50.3726 129.116 51.6951 128.761 53.5255 128.754L53.5214 127.754C51.5861 127.762 50.0258 128.134 48.9074 128.938L49.491 129.75ZM53.5234 128.754H55.082V127.754H53.5234V128.754ZM55.582 128.254V127.527H54.582V128.254H55.582ZM55.582 127.527C55.582 126.853 55.4051 126.258 55.0028 125.794L54.2472 126.449C54.4543 126.688 54.582 127.029 54.582 127.527H55.582ZM55.007 125.799C54.581 125.294 53.94 125.094 53.207 125.094V126.094C53.7709 126.094 54.0752 126.245 54.243 126.444L55.007 125.799ZM53.207 125.094C52.5592 125.094 51.9835 125.25 51.5393 125.62L52.1795 126.388C52.3915 126.211 52.7142 126.094 53.207 126.094V125.094ZM51.5347 125.624C51.0878 126.005 50.8789 126.528 50.8789 127.129H51.8789C51.8789 126.777 51.9904 126.549 52.184 126.384L51.5347 125.624ZM51.3789 126.629H47.9922V127.629H51.3789V126.629ZM48.4922 127.129C48.4922 126.506 48.6821 125.928 49.0767 125.383L48.2671 124.796C47.7554 125.502 47.4922 126.284 47.4922 127.129H48.4922ZM49.0767 125.383C49.4682 124.843 50.0306 124.407 50.7891 124.085L50.3984 123.165C49.5006 123.546 48.7818 124.086 48.2671 124.796L49.0767 125.383ZM50.7928 124.084C51.5498 123.755 52.4103 123.586 53.3828 123.586V122.586C52.2928 122.586 51.294 122.776 50.3947 123.166L50.7928 124.084ZM53.3828 123.586C54.8614 123.586 55.9717 123.958 56.7709 124.648L57.4244 123.891C56.3955 123.003 55.0292 122.586 53.3828 122.586V123.586ZM56.7744 124.651C57.564 125.32 57.9805 126.271 57.9805 127.574H58.9805C58.9805 126.034 58.4751 124.781 57.4209 123.888L56.7744 124.651ZM57.9805 127.574V133.07H58.9805V127.574H57.9805ZM57.9805 133.074C57.9885 134.307 58.1587 135.313 58.5429 136.035L59.4259 135.566C59.1538 135.054 58.9881 134.24 58.9805 133.067L57.9805 133.074ZM58.4844 135.801V136H59.4844V135.801H58.4844ZM58.9844 135.5H55.5625V136.5H58.9844V135.5ZM52.7617 134.145C53.3375 134.145 53.878 134.018 54.3747 133.76L53.9144 132.873C53.5673 133.052 53.1859 133.145 52.7617 133.145V134.145ZM54.3811 133.757C54.878 133.49 55.2665 133.123 55.5217 132.652L54.6424 132.176C54.4913 132.455 54.2548 132.69 53.908 132.876L54.3811 133.757ZM55.582 132.414V130.234H54.582V132.414H55.582ZM55.082 129.734H53.8164V130.734H55.082V129.734ZM53.8164 129.734C52.9232 129.734 52.1623 129.887 51.5959 130.254C51.0033 130.639 50.6789 131.224 50.6115 131.946L51.6072 132.039C51.6492 131.589 51.8307 131.294 52.1405 131.093C52.4764 130.875 53.0143 130.734 53.8164 130.734V129.734ZM50.6102 131.963L50.5985 132.162L51.5968 132.221L51.6085 132.022L50.6102 131.963ZM50.5977 132.191C50.5977 132.746 50.7994 133.229 51.2042 133.602L51.8817 132.867C51.6928 132.693 51.5977 132.481 51.5977 132.191H50.5977ZM51.2042 133.602C51.6169 133.982 52.1567 134.145 52.7617 134.145V133.145C52.3355 133.145 52.0628 133.033 51.8817 132.867L51.2042 133.602ZM68.207 126.496L68.1398 126.992L68.6989 127.067L68.707 126.503L68.207 126.496ZM64.4688 127.703L64.0144 127.494L63.9688 127.594V127.703H64.4688ZM64.4688 136V136.5H64.9688V136H64.4688ZM61.082 136H60.582V136.5H61.082V136ZM61.082 123.32V122.82H60.582V123.32H61.082ZM64.2812 123.32L64.7803 123.289L64.7512 122.82H64.2812V123.32ZM64.375 124.832L63.876 124.863L63.9777 126.504L64.8068 125.084L64.375 124.832ZM68.2539 123.238L68.7539 123.245L68.7592 122.871L68.4017 122.761L68.2539 123.238ZM68.2742 126.001C67.7977 125.936 67.3681 125.902 66.9883 125.902V126.902C67.3115 126.902 67.6945 126.931 68.1398 126.992L68.2742 126.001ZM66.9883 125.902C65.591 125.902 64.523 126.387 64.0144 127.494L64.9231 127.912C65.2114 127.284 65.8231 126.902 66.9883 126.902V125.902ZM63.9688 127.703V136H64.9688V127.703H63.9688ZM64.4688 135.5H61.082V136.5H64.4688V135.5ZM61.582 136V123.32H60.582V136H61.582ZM61.082 123.82H64.2812V122.82H61.082V123.82ZM63.7822 123.351L63.876 124.863L64.874 124.801L64.7803 123.289L63.7822 123.351ZM64.8068 125.084C65.4098 124.051 66.1982 123.586 67.1992 123.586V122.586C65.794 122.586 64.6995 123.285 63.9432 124.58L64.8068 125.084ZM67.1992 123.586C67.5287 123.586 67.83 123.63 68.1061 123.716L68.4017 122.761C68.0216 122.643 67.6198 122.586 67.1992 122.586V123.586ZM67.754 123.231L67.7071 126.489L68.707 126.503L68.7539 123.245L67.754 123.231ZM74.4531 130.914L74.8742 130.644L74.539 130.121L74.0996 130.561L74.4531 130.914ZM73.2344 132.133L72.8808 131.779L72.7344 131.926V132.133H73.2344ZM73.2344 136V136.5H73.7344V136H73.2344ZM69.8477 136H69.3477V136.5H69.8477V136ZM69.8477 118V117.5H69.3477V118H69.8477ZM73.2344 118H73.7344V117.5H73.2344V118ZM73.2344 127.973H72.7344V129.43L73.6291 128.28L73.2344 127.973ZM73.8906 127.129L73.5101 126.805L73.5028 126.813L73.4959 126.822L73.8906 127.129ZM77.1367 123.32V122.82H76.9059L76.7562 122.996L77.1367 123.32ZM81.2031 123.32L81.5809 123.648L82.2984 122.82H81.2031V123.32ZM76.6211 128.605L76.2433 128.278L75.9925 128.567L76.2064 128.885L76.6211 128.605ZM81.6016 136V136.5H82.5412L82.0163 135.721L81.6016 136ZM77.7109 136L77.2899 136.27L77.4374 136.5H77.7109V136ZM74.0996 130.561L72.8808 131.779L73.5879 132.486L74.8067 131.268L74.0996 130.561ZM72.7344 132.133V136H73.7344V132.133H72.7344ZM73.2344 135.5H69.8477V136.5H73.2344V135.5ZM70.3477 136V118H69.3477V136H70.3477ZM69.8477 118.5H73.2344V117.5H69.8477V118.5ZM72.7344 118V127.973H73.7344V118H72.7344ZM73.6291 128.28L74.2853 127.436L73.4959 126.822L72.8397 127.666L73.6291 128.28ZM74.2712 127.453L77.5173 123.645L76.7562 122.996L73.5101 126.805L74.2712 127.453ZM77.1367 123.82H81.2031V122.82H77.1367V123.82ZM80.8253 122.993L76.2433 128.278L76.9989 128.933L81.5809 123.648L80.8253 122.993ZM76.2064 128.885L81.1869 136.279L82.0163 135.721L77.0358 128.326L76.2064 128.885ZM81.6016 135.5H77.7109V136.5H81.6016V135.5ZM78.132 135.73L74.8742 130.644L74.0321 131.184L77.2899 136.27L78.132 135.73ZM85.8438 123.32L86.3424 123.283L86.3079 122.82H85.8438V123.32ZM85.9492 124.738L85.4506 124.775L85.5437 126.027L86.3367 125.054L85.9492 124.738ZM92.957 125.02L92.505 125.233L92.8755 126.017L93.3684 125.304L92.957 125.02ZM99.8359 124.293L99.4521 124.613L99.4537 124.615L99.8359 124.293ZM100.844 136V136.5H101.344V136H100.844ZM97.4453 136H96.9453V136.5H97.4453V136ZM97.0234 126.344L96.64 126.665L96.6438 126.669L97.0234 126.344ZM93.4258 127.293L92.9621 127.106L92.9257 127.196L92.9258 127.294L93.4258 127.293ZM93.4375 136V136.5H93.9382L93.9375 135.999L93.4375 136ZM90.0508 136H89.5508V136.5H90.0508V136ZM86.0547 127.035L85.6146 126.798L85.5547 126.909V127.035H86.0547ZM86.0547 136V136.5H86.5547V136H86.0547ZM82.668 136H82.168V136.5H82.668V136ZM82.668 123.32V122.82H82.168V123.32H82.668ZM85.3451 123.357L85.4506 124.775L86.4478 124.701L86.3424 123.283L85.3451 123.357ZM86.3367 125.054C87.1321 124.079 88.1995 123.586 89.5938 123.586V122.586C87.9255 122.586 86.5632 123.194 85.5618 124.422L86.3367 125.054ZM89.5938 123.586C90.3453 123.586 90.9427 123.734 91.41 124.003C91.873 124.269 92.2392 124.671 92.505 125.233L93.4091 124.806C93.0655 124.079 92.5664 123.514 91.9084 123.136C91.2546 122.76 90.475 122.586 89.5938 122.586V123.586ZM93.3684 125.304C94.16 124.158 95.2713 123.586 96.7656 123.586V122.586C94.9631 122.586 93.5353 123.303 92.5457 124.735L93.3684 125.304ZM96.7656 123.586C98.0418 123.586 98.9029 123.956 99.4521 124.613L100.22 123.973C99.4252 123.021 98.2394 122.586 96.7656 122.586V123.586ZM99.4537 124.615C100.018 125.284 100.344 126.35 100.344 127.902H101.344C101.344 126.236 100.998 124.895 100.218 123.971L99.4537 124.615ZM100.344 127.902V136H101.344V127.902H100.344ZM100.844 135.5H97.4453V136.5H100.844V135.5ZM97.9453 136V127.914H96.9453V136H97.9453ZM97.9453 127.914C97.9453 127.149 97.7992 126.48 97.4031 126.018L96.6438 126.669C96.8102 126.863 96.9453 127.241 96.9453 127.914H97.9453ZM97.4068 126.023C96.9847 125.519 96.3034 125.34 95.5352 125.34V126.34C96.1888 126.34 96.4997 126.497 96.6401 126.665L97.4068 126.023ZM95.5352 125.34C94.9456 125.34 94.4122 125.482 93.9624 125.791C93.5137 126.101 93.1858 126.551 92.9621 127.106L93.8895 127.48C94.0564 127.066 94.2754 126.79 94.5297 126.615C94.7831 126.44 95.109 126.34 95.5352 126.34V125.34ZM92.9258 127.294L92.9375 136.001L93.9375 135.999L93.9258 127.292L92.9258 127.294ZM93.4375 135.5H90.0508V136.5H93.4375V135.5ZM90.5508 136V127.926H89.5508V136H90.5508ZM90.5508 127.926C90.5508 127.146 90.4011 126.465 89.9924 126.002L89.242 126.663C89.4114 126.855 89.5508 127.237 89.5508 127.926H90.5508ZM89.9924 126.002C89.5645 125.516 88.8961 125.34 88.1406 125.34V126.34C88.7757 126.34 89.0917 126.492 89.242 126.663L89.9924 126.002ZM88.1406 125.34C87.5903 125.34 87.0869 125.454 86.6498 125.705C86.2111 125.956 85.8678 126.328 85.6146 126.798L86.4948 127.272C86.6713 126.945 86.8904 126.72 87.147 126.572C87.4052 126.425 87.73 126.34 88.1406 126.34V125.34ZM85.5547 127.035V136H86.5547V127.035H85.5547ZM86.0547 135.5H82.668V136.5H86.0547V135.5ZM83.168 136V123.32H82.168V136H83.168ZM82.668 123.82H85.8438V122.82H82.668V123.82ZM104.746 134.523L104.396 134.881L104.397 134.882L104.746 134.523ZM103.738 126.227L104.187 126.447L104.188 126.446L103.738 126.227ZM105.824 123.906L106.081 124.335L106.083 124.334L105.824 123.906ZM113.008 124.727L112.637 125.063L112.639 125.064L113.008 124.727ZM114.508 130.762V131.262H115.008V130.762H114.508ZM106.434 130.762V130.262H105.863L105.938 130.827L106.434 130.762ZM107.418 132.754L107.081 133.123L107.083 133.125L107.418 132.754ZM112.574 132.086L112.947 131.753L112.547 131.305L112.179 131.779L112.574 132.086ZM114.238 133.949L114.647 134.238L114.876 133.913L114.611 133.616L114.238 133.949ZM112.176 135.637L112.385 136.091L112.388 136.089L112.176 135.637ZM107.266 126.508L106.9 126.167L106.897 126.171L107.266 126.508ZM106.469 128.453L105.974 128.384L105.895 128.953H106.469V128.453ZM111.18 128.453V128.953H111.68V128.453H111.18ZM111.18 128.184H111.68L111.68 128.173L111.18 128.184ZM110.57 126.449L110.207 126.792L110.21 126.796L110.57 126.449ZM109.293 135.734C107.545 135.734 106.16 135.202 105.095 134.165L104.397 134.882C105.676 136.126 107.323 136.734 109.293 136.734V135.734ZM105.096 134.166C104.044 133.135 103.5 131.753 103.5 129.965H102.5C102.5 131.974 103.12 133.63 104.396 134.881L105.096 134.166ZM103.5 129.965V129.637H102.5V129.965H103.5ZM103.5 129.637C103.5 128.429 103.733 127.369 104.187 126.447L103.29 126.006C102.759 127.084 102.5 128.298 102.5 129.637H103.5ZM104.188 126.446C104.64 125.519 105.272 124.821 106.081 124.335L105.567 123.478C104.58 124.07 103.82 124.919 103.289 126.007L104.188 126.446ZM106.083 124.334C106.904 123.839 107.844 123.586 108.918 123.586V122.586C107.679 122.586 106.557 122.88 105.566 123.478L106.083 124.334ZM108.918 123.586C110.538 123.586 111.757 124.092 112.637 125.063L113.378 124.391C112.274 123.174 110.766 122.586 108.918 122.586V123.586ZM112.639 125.064C113.528 126.037 114.008 127.451 114.008 129.379H115.008C115.008 127.291 114.487 125.604 113.377 124.389L112.639 125.064ZM114.008 129.379V130.762H115.008V129.379H114.008ZM114.508 130.262H106.434V131.262H114.508V130.262ZM105.938 130.827C106.061 131.756 106.436 132.533 107.081 133.123L107.755 132.385C107.306 131.974 107.025 131.424 106.929 130.696L105.938 130.827ZM107.083 133.125C107.742 133.719 108.565 134.004 109.516 134.004V133.004C108.778 133.004 108.204 132.789 107.753 132.383L107.083 133.125ZM109.516 134.004C110.959 134.004 112.131 133.472 112.969 132.393L112.179 131.779C111.549 132.591 110.682 133.004 109.516 133.004V134.004ZM112.201 132.419L113.865 134.282L114.611 133.616L112.947 131.753L112.201 132.419ZM113.83 133.661C113.377 134.302 112.759 134.811 111.964 135.184L112.388 136.089C113.327 135.65 114.084 135.033 114.647 134.238L113.83 133.661ZM111.967 135.182C111.172 135.548 110.283 135.734 109.293 135.734V136.734C110.412 136.734 111.445 136.523 112.385 136.091L111.967 135.182ZM108.906 125.328C108.109 125.328 107.425 125.603 106.9 126.167L107.632 126.849C107.95 126.506 108.36 126.328 108.906 126.328V125.328ZM106.897 126.171C106.392 126.722 106.099 127.478 105.974 128.384L106.964 128.522C107.072 127.741 107.311 127.2 107.635 126.845L106.897 126.171ZM106.469 128.953H111.18V127.953H106.469V128.953ZM111.68 128.453V128.184H110.68V128.453H111.68ZM111.68 128.173C111.662 127.34 111.434 126.626 110.931 126.103L110.21 126.796C110.488 127.085 110.666 127.527 110.68 128.194L111.68 128.173ZM110.934 126.106C110.425 125.567 109.724 125.328 108.906 125.328V126.328C109.526 126.328 109.934 126.503 110.207 126.792L110.934 126.106Z" fill="white"/>
<path d="M11.3656 24.9521L11.1431 24.5044L11.3656 24.9521L36.142 12.6352V98.5366L11.241 112.623C10.4868 112.992 9.70323 112.844 9.07861 112.318C8.44197 111.782 7.97534 110.848 7.97534 109.699V31.2357C7.97534 31.2356 7.97534 31.2356 7.97534 31.2356C7.9756 29.8649 8.30661 28.5323 8.91793 27.4103C9.52923 26.2884 10.3867 25.4388 11.3656 24.9521ZM108.585 100.204L108.585 100.204L83.8087 112.521V26.6198L108.71 12.5332C109.464 12.164 110.247 12.3126 110.872 12.8383C111.509 13.3742 111.975 14.3081 111.975 15.4577V93.9209C111.975 95.2916 111.644 96.6244 111.033 97.7463C110.422 98.8683 109.564 99.7179 108.585 100.204ZM42.9753 12.5766L76.9753 26.6623V112.58L42.9753 98.4941V12.5766Z" fill="#1D1935" stroke="white"/>
<path fill-rule="evenodd" clip-rule="evenodd" d="M76.9354 92.3428C56.847 103.941 31.8218 97.1955 20.5 77.5855C9.17815 57.9755 16.2847 32.6765 36.3731 21.0785C55.3323 10.1324 79.0786 15.3027 91.2062 32.4042C92.4487 33.8022 93.5633 35.6009 94.5252 37.8509C94.6754 38.2011 94.8211 38.5514 94.963 38.9013C96.8373 42.9735 98.7304 48.0425 99.1742 52.3307C103.466 80.5738 84.5986 104.607 84.5986 104.607L77.372 92.0907C77.2495 92.1631 77.0589 92.2715 76.9354 92.3428Z" fill="#36E491"/>
<circle cx="56.4753" cy="56.5782" r="13" fill="white"/>
</svg>
