<svg width="129" height="142" viewBox="0 0 129 142" fill="none" xmlns="http://www.w3.org/2000/svg">
<path d="M15.6484 136C15.4922 135.695 15.3789 135.316 15.3086 134.863C14.4883 135.777 13.4219 136.234 12.1094 136.234C10.8672 136.234 9.83594 135.875 9.01562 135.156C8.20312 134.438 7.79688 133.531 7.79688 132.438C7.79688 131.094 8.29297 130.062 9.28516 129.344C10.2852 128.625 11.7266 128.262 13.6094 128.254H15.168V127.527C15.168 126.941 15.0156 126.473 14.7109 126.121C14.4141 125.77 13.9414 125.594 13.293 125.594C12.7227 125.594 12.2734 125.73 11.9453 126.004C11.625 126.277 11.4648 126.652 11.4648 127.129H8.07812C8.07812 126.395 8.30469 125.715 8.75781 125.09C9.21094 124.465 9.85156 123.977 10.6797 123.625C11.5078 123.266 12.4375 123.086 13.4688 123.086C15.0312 123.086 16.2695 123.48 17.1836 124.27C18.1055 125.051 18.5664 126.152 18.5664 127.574V133.07C18.5742 134.273 18.7422 135.184 19.0703 135.801V136H15.6484ZM12.8477 133.645C13.3477 133.645 13.8086 133.535 14.2305 133.316C14.6523 133.09 14.9648 132.789 15.168 132.414V130.234H13.9023C12.207 130.234 11.3047 130.82 11.1953 131.992L11.1836 132.191C11.1836 132.613 11.332 132.961 11.6289 133.234C11.9258 133.508 12.332 133.645 12.8477 133.645ZM32.582 129.777C32.582 131.73 32.1367 133.297 31.2461 134.477C30.3633 135.648 29.168 136.234 27.6602 136.234C26.3789 136.234 25.3438 135.789 24.5547 134.898V140.875H21.168V123.32H24.3086L24.4258 124.562C25.2461 123.578 26.3164 123.086 27.6367 123.086C29.1992 123.086 30.4141 123.664 31.2812 124.82C32.1484 125.977 32.582 127.57 32.582 129.602V129.777ZM29.1953 129.531C29.1953 128.352 28.9844 127.441 28.5625 126.801C28.1484 126.16 27.543 125.84 26.7461 125.84C25.6836 125.84 24.9531 126.246 24.5547 127.059V132.25C24.9688 133.086 25.707 133.504 26.7695 133.504C28.3867 133.504 29.1953 132.18 29.1953 129.531ZM46.1055 129.777C46.1055 131.73 45.6602 133.297 44.7695 134.477C43.8867 135.648 42.6914 136.234 41.1836 136.234C39.9023 136.234 38.8672 135.789 38.0781 134.898V140.875H34.6914V123.32H37.832L37.9492 124.562C38.7695 123.578 39.8398 123.086 41.1602 123.086C42.7227 123.086 43.9375 123.664 44.8047 124.82C45.6719 125.977 46.1055 127.57 46.1055 129.602V129.777ZM42.7188 129.531C42.7188 128.352 42.5078 127.441 42.0859 126.801C41.6719 126.16 41.0664 125.84 40.2695 125.84C39.207 125.84 38.4766 126.246 38.0781 127.059V132.25C38.4922 133.086 39.2305 133.504 40.293 133.504C41.9102 133.504 42.7188 132.18 42.7188 129.531ZM55.5625 136C55.4062 135.695 55.293 135.316 55.2227 134.863C54.4023 135.777 53.3359 136.234 52.0234 136.234C50.7812 136.234 49.75 135.875 48.9297 135.156C48.1172 134.438 47.7109 133.531 47.7109 132.438C47.7109 131.094 48.207 130.062 49.1992 129.344C50.1992 128.625 51.6406 128.262 53.5234 128.254H55.082V127.527C55.082 126.941 54.9297 126.473 54.625 126.121C54.3281 125.77 53.8555 125.594 53.207 125.594C52.6367 125.594 52.1875 125.73 51.8594 126.004C51.5391 126.277 51.3789 126.652 51.3789 127.129H47.9922C47.9922 126.395 48.2188 125.715 48.6719 125.09C49.125 124.465 49.7656 123.977 50.5938 123.625C51.4219 123.266 52.3516 123.086 53.3828 123.086C54.9453 123.086 56.1836 123.48 57.0977 124.27C58.0195 125.051 58.4805 126.152 58.4805 127.574V133.07C58.4883 134.273 58.6562 135.184 58.9844 135.801V136H55.5625ZM52.7617 133.645C53.2617 133.645 53.7227 133.535 54.1445 133.316C54.5664 133.09 54.8789 132.789 55.082 132.414V130.234H53.8164C52.1211 130.234 51.2188 130.82 51.1094 131.992L51.0977 132.191C51.0977 132.613 51.2461 132.961 51.543 133.234C51.8398 133.508 52.2461 133.645 52.7617 133.645ZM68.207 126.496C67.7461 126.434 67.3398 126.402 66.9883 126.402C65.707 126.402 64.8672 126.836 64.4688 127.703V136H61.082V123.32H64.2812L64.375 124.832C65.0547 123.668 65.9961 123.086 67.1992 123.086C67.5742 123.086 67.9258 123.137 68.2539 123.238L68.207 126.496ZM74.4531 130.914L73.2344 132.133V136H69.8477V118H73.2344V127.973L73.8906 127.129L77.1367 123.32H81.2031L76.6211 128.605L81.6016 136H77.7109L74.4531 130.914ZM85.8438 123.32L85.9492 124.738C86.8477 123.637 88.0625 123.086 89.5938 123.086C91.2266 123.086 92.3477 123.73 92.957 125.02C93.8477 123.73 95.1172 123.086 96.7656 123.086C98.1406 123.086 99.1641 123.488 99.8359 124.293C100.508 125.09 100.844 126.293 100.844 127.902V136H97.4453V127.914C97.4453 127.195 97.3047 126.672 97.0234 126.344C96.7422 126.008 96.2461 125.84 95.5352 125.84C94.5195 125.84 93.8164 126.324 93.4258 127.293L93.4375 136H90.0508V127.926C90.0508 127.191 89.9062 126.66 89.6172 126.332C89.3281 126.004 88.8359 125.84 88.1406 125.84C87.1797 125.84 86.4844 126.238 86.0547 127.035V136H82.668V123.32H85.8438ZM109.293 136.234C107.434 136.234 105.918 135.664 104.746 134.523C103.582 133.383 103 131.863 103 129.965V129.637C103 128.363 103.246 127.227 103.738 126.227C104.23 125.219 104.926 124.445 105.824 123.906C106.73 123.359 107.762 123.086 108.918 123.086C110.652 123.086 112.016 123.633 113.008 124.727C114.008 125.82 114.508 127.371 114.508 129.379V130.762H106.434C106.543 131.59 106.871 132.254 107.418 132.754C107.973 133.254 108.672 133.504 109.516 133.504C110.82 133.504 111.84 133.031 112.574 132.086L114.238 133.949C113.73 134.668 113.043 135.23 112.176 135.637C111.309 136.035 110.348 136.234 109.293 136.234ZM108.906 125.828C108.234 125.828 107.688 126.055 107.266 126.508C106.852 126.961 106.586 127.609 106.469 128.453H111.18V128.184C111.164 127.434 110.961 126.855 110.57 126.449C110.18 126.035 109.625 125.828 108.906 125.828Z" fill="#36E491"/>
<path d="M15.6484 136L14.7586 136.456L15.0374 137H15.6484V136ZM15.3086 134.863L16.2968 134.71L15.9733 132.625L14.5644 134.195L15.3086 134.863ZM9.01562 135.156L8.35304 135.905L8.35661 135.908L9.01562 135.156ZM9.28516 129.344L8.70152 128.532L8.6985 128.534L9.28516 129.344ZM13.6094 128.254L13.6094 127.254L13.6052 127.254L13.6094 128.254ZM15.168 128.254V129.254H16.168V128.254H15.168ZM14.7109 126.121L13.9468 126.766L13.9552 126.776L14.7109 126.121ZM11.9453 126.004L11.3051 125.236L11.2961 125.243L11.9453 126.004ZM11.4648 127.129V128.129H12.4648V127.129H11.4648ZM8.07812 127.129H7.07812V128.129H8.07812V127.129ZM10.6797 123.625L11.0705 124.546L11.0778 124.542L10.6797 123.625ZM17.1836 124.27L16.5301 125.027L16.5371 125.032L17.1836 124.27ZM18.5664 133.07H17.5664L17.5664 133.077L18.5664 133.07ZM19.0703 135.801H20.0703V135.551L19.9533 135.331L19.0703 135.801ZM19.0703 136V137H20.0703V136H19.0703ZM14.2305 133.316L14.6908 134.204L14.6972 134.201L14.7036 134.197L14.2305 133.316ZM15.168 132.414L16.0473 132.89L16.168 132.668V132.414H15.168ZM15.168 130.234H16.168V129.234H15.168V130.234ZM11.1953 131.992L10.1996 131.899L10.198 131.916L10.197 131.933L11.1953 131.992ZM11.1836 132.191L10.1853 132.133L10.1836 132.162V132.191H11.1836ZM16.5383 135.544C16.4441 135.36 16.3559 135.091 16.2968 134.71L14.3204 135.017C14.4019 135.542 14.5402 136.03 14.7586 136.456L16.5383 135.544ZM14.5644 134.195C13.9479 134.882 13.1599 135.234 12.1094 135.234V137.234C13.6839 137.234 15.0286 136.672 16.0528 135.531L14.5644 134.195ZM12.1094 135.234C11.0737 135.234 10.2873 134.941 9.67464 134.404L8.35661 135.908C9.3846 136.809 10.6607 137.234 12.1094 137.234V135.234ZM9.6782 134.407C9.08229 133.88 8.79688 133.247 8.79688 132.438H6.79688C6.79688 133.815 7.32396 134.995 8.35305 135.905L9.6782 134.407ZM8.79688 132.438C8.79688 131.378 9.16715 130.664 9.87181 130.154L8.6985 128.534C7.41879 129.461 6.79688 130.809 6.79688 132.438H8.79688ZM9.86879 130.156C10.6319 129.607 11.8355 129.261 13.6135 129.254L13.6052 127.254C11.6176 127.262 9.93836 127.643 8.70152 128.532L9.86879 130.156ZM13.6094 129.254H15.168V127.254H13.6094V129.254ZM16.168 128.254V127.527H14.168V128.254H16.168ZM16.168 127.527C16.168 126.765 15.9665 126.043 15.4666 125.466L13.9552 126.776C14.0648 126.902 14.168 127.118 14.168 127.527H16.168ZM15.475 125.476C14.9198 124.819 14.1105 124.594 13.293 124.594V126.594C13.7723 126.594 13.9083 126.721 13.9469 126.766L15.475 125.476ZM13.293 124.594C12.5676 124.594 11.8655 124.769 11.3051 125.236L12.5855 126.772C12.6814 126.692 12.8777 126.594 13.293 126.594V124.594ZM11.2961 125.243C10.7224 125.733 10.4648 126.403 10.4648 127.129H12.4648C12.4648 126.902 12.5276 126.822 12.5946 126.764L11.2961 125.243ZM11.4648 126.129H8.07812V128.129H11.4648V126.129ZM9.07812 127.129C9.07812 126.617 9.23131 126.14 9.56742 125.677L7.9482 124.503C7.37807 125.289 7.07812 126.172 7.07812 127.129H9.07812ZM9.56742 125.677C9.89727 125.222 10.3816 124.838 11.0705 124.545L10.2889 122.705C9.32152 123.115 8.52461 123.708 7.9482 124.503L9.56742 125.677ZM11.0778 124.542C11.7636 124.245 12.555 124.086 13.4688 124.086V122.086C12.32 122.086 11.252 122.287 10.2816 122.708L11.0778 124.542ZM13.4688 124.086C14.8634 124.086 15.8457 124.436 16.5301 125.026L17.837 123.513C16.6934 122.525 15.1991 122.086 13.4688 122.086V124.086ZM16.5371 125.032C17.1943 125.589 17.5664 126.389 17.5664 127.574H19.5664C19.5664 125.916 19.0166 124.512 17.8301 123.507L16.5371 125.032ZM17.5664 127.574V133.07H19.5664V127.574H17.5664ZM17.5664 133.077C17.5746 134.34 17.747 135.442 18.1873 136.27L19.9533 135.331C19.7373 134.925 19.5738 134.207 19.5664 133.064L17.5664 133.077ZM18.0703 135.801V136H20.0703V135.801H18.0703ZM19.0703 135H15.6484V137H19.0703V135ZM12.8477 134.645C13.4993 134.645 14.1192 134.501 14.6908 134.204L13.7702 132.429C13.498 132.57 13.1961 132.645 12.8477 132.645V134.645ZM14.7036 134.197C15.2756 133.89 15.74 133.458 16.0473 132.89L14.2887 131.938C14.1897 132.121 14.0291 132.289 13.7573 132.435L14.7036 134.197ZM16.168 132.414V130.234H14.168V132.414H16.168ZM15.168 129.234H13.9023V131.234H15.168V129.234ZM13.9023 129.234C12.9635 129.234 12.0912 129.392 11.4095 129.835C10.6755 130.312 10.2797 131.042 10.1996 131.899L12.191 132.085C12.2203 131.771 12.3304 131.622 12.4987 131.513C12.7193 131.369 13.1459 131.234 13.9023 131.234V129.234ZM10.197 131.933L10.1853 132.133L12.1819 132.25L12.1936 132.051L10.197 131.933ZM10.1836 132.191C10.1836 132.878 10.4387 133.498 10.9514 133.97L12.3064 132.499C12.2253 132.424 12.1836 132.348 12.1836 132.191H10.1836ZM10.9514 133.97C11.4799 134.457 12.1532 134.645 12.8477 134.645V132.645C12.5109 132.645 12.3717 132.559 12.3064 132.499L10.9514 133.97ZM31.2461 134.477L30.448 133.874L30.4474 133.875L31.2461 134.477ZM24.5547 134.898L25.3032 134.235L23.5547 132.262V134.898H24.5547ZM24.5547 140.875V141.875H25.5547V140.875H24.5547ZM21.168 140.875H20.168V141.875H21.168V140.875ZM21.168 123.32V122.32H20.168V123.32H21.168ZM24.3086 123.32L25.3042 123.226L25.2187 122.32H24.3086V123.32ZM24.4258 124.562L23.4302 124.656L23.6559 127.048L25.194 125.203L24.4258 124.562ZM28.5625 126.801L27.7226 127.344L27.7273 127.351L28.5625 126.801ZM24.5547 127.059L23.6568 126.618L23.5547 126.827V127.059H24.5547ZM24.5547 132.25H23.5547V132.484L23.6586 132.694L24.5547 132.25ZM31.582 129.777C31.582 131.583 31.1711 132.916 30.448 133.874L32.0442 135.079C33.1024 133.677 33.582 131.878 33.582 129.777H31.582ZM30.4474 133.875C29.7596 134.788 28.8642 135.234 27.6602 135.234V137.234C29.4718 137.234 30.967 136.509 32.0448 135.078L30.4474 133.875ZM27.6602 135.234C26.6403 135.234 25.8866 134.894 25.3032 134.235L23.8062 135.562C24.8009 136.684 26.1175 137.234 27.6602 137.234V135.234ZM23.5547 134.898V140.875H25.5547V134.898H23.5547ZM24.5547 139.875H21.168V141.875H24.5547V139.875ZM22.168 140.875V123.32H20.168V140.875H22.168ZM21.168 124.32H24.3086V122.32H21.168V124.32ZM23.313 123.414L23.4302 124.656L25.4214 124.469L25.3042 123.226L23.313 123.414ZM25.194 125.203C25.8178 124.454 26.6028 124.086 27.6367 124.086V122.086C26.03 122.086 24.6744 122.702 23.6576 123.922L25.194 125.203ZM27.6367 124.086C28.9141 124.086 29.82 124.539 30.4812 125.42L32.0812 124.22C31.0081 122.789 29.4844 122.086 27.6367 122.086V124.086ZM30.4812 125.42C31.1753 126.346 31.582 127.701 31.582 129.602H33.582C33.582 127.439 33.1216 125.607 32.0812 124.22L30.4812 125.42ZM31.582 129.602V129.777H33.582V129.602H31.582ZM30.1953 129.531C30.1953 128.254 29.9705 127.121 29.3977 126.251L27.7273 127.351C27.9983 127.762 28.1953 128.449 28.1953 129.531H30.1953ZM29.4023 126.258C28.7944 125.317 27.8641 124.84 26.7461 124.84V126.84C27.2218 126.84 27.5025 127.003 27.7227 127.344L29.4023 126.258ZM26.7461 124.84C26.0899 124.84 25.4643 124.965 24.9153 125.271C24.3569 125.581 23.9381 126.045 23.6568 126.618L25.4525 127.499C25.5697 127.26 25.7153 127.114 25.8874 127.018C26.0689 126.918 26.3398 126.84 26.7461 126.84V124.84ZM23.5547 127.059V132.25H25.5547V127.059H23.5547ZM23.6586 132.694C23.9452 133.272 24.3658 133.743 24.9263 134.061C25.4791 134.374 26.1086 134.504 26.7695 134.504V132.504C26.368 132.504 26.0971 132.425 25.9116 132.32C25.7338 132.22 25.5782 132.063 25.4508 131.806L23.6586 132.694ZM26.7695 134.504C27.9087 134.504 28.8473 134.006 29.4423 133.032C29.9884 132.138 30.1953 130.925 30.1953 129.531H28.1953C28.1953 130.786 27.9979 131.56 27.7354 131.99C27.5219 132.339 27.2476 132.504 26.7695 132.504V134.504ZM44.7695 134.477L43.9714 133.874L43.9708 133.875L44.7695 134.477ZM38.0781 134.898L38.8266 134.235L37.0781 132.262V134.898H38.0781ZM38.0781 140.875V141.875H39.0781V140.875H38.0781ZM34.6914 140.875H33.6914V141.875H34.6914V140.875ZM34.6914 123.32V122.32H33.6914V123.32H34.6914ZM37.832 123.32L38.8276 123.226L38.7421 122.32H37.832V123.32ZM37.9492 124.562L36.9536 124.656L37.1793 127.048L38.7174 125.203L37.9492 124.562ZM42.0859 126.801L41.2461 127.344L41.2508 127.351L42.0859 126.801ZM38.0781 127.059L37.1803 126.618L37.0781 126.827V127.059H38.0781ZM38.0781 132.25H37.0781V132.484L37.182 132.694L38.0781 132.25ZM45.1055 129.777C45.1055 131.583 44.6945 132.916 43.9714 133.874L45.5676 135.079C46.6258 133.677 47.1055 131.878 47.1055 129.777H45.1055ZM43.9708 133.875C43.283 134.788 42.3876 135.234 41.1836 135.234V137.234C42.9952 137.234 44.4904 136.509 45.5683 135.078L43.9708 133.875ZM41.1836 135.234C40.1638 135.234 39.4101 134.894 38.8266 134.235L37.3296 135.562C38.3243 136.684 39.6409 137.234 41.1836 137.234V135.234ZM37.0781 134.898V140.875H39.0781V134.898H37.0781ZM38.0781 139.875H34.6914V141.875H38.0781V139.875ZM35.6914 140.875V123.32H33.6914V140.875H35.6914ZM34.6914 124.32H37.832V122.32H34.6914V124.32ZM36.8365 123.414L36.9536 124.656L38.9448 124.469L38.8276 123.226L36.8365 123.414ZM38.7174 125.203C39.3412 124.454 40.1262 124.086 41.1602 124.086V122.086C39.5535 122.086 38.1979 122.702 37.181 123.922L38.7174 125.203ZM41.1602 124.086C42.4375 124.086 43.3434 124.539 44.0047 125.42L45.6047 124.22C44.5316 122.789 43.0078 122.086 41.1602 122.086V124.086ZM44.0047 125.42C44.6987 126.346 45.1055 127.701 45.1055 129.602H47.1055C47.1055 127.439 46.645 125.607 45.6047 124.22L44.0047 125.42ZM45.1055 129.602V129.777H47.1055V129.602H45.1055ZM43.7188 129.531C43.7188 128.254 43.4939 127.121 42.9211 126.251L41.2508 127.351C41.5217 127.762 41.7188 128.449 41.7188 129.531H43.7188ZM42.9258 126.258C42.3178 125.317 41.3875 124.84 40.2695 124.84V126.84C40.7453 126.84 41.026 127.003 41.2461 127.344L42.9258 126.258ZM40.2695 124.84C39.6134 124.84 38.9877 124.965 38.4388 125.271C37.8804 125.581 37.4615 126.045 37.1803 126.618L38.976 127.499C39.0932 127.26 39.2388 127.114 39.4108 127.018C39.5924 126.918 39.8632 126.84 40.2695 126.84V124.84ZM37.0781 127.059V132.25H39.0781V127.059H37.0781ZM37.182 132.694C37.4686 133.272 37.8892 133.743 38.4497 134.061C39.0025 134.374 39.632 134.504 40.293 134.504V132.504C39.8914 132.504 39.6205 132.425 39.435 132.32C39.2573 132.22 39.1017 132.063 38.9742 131.806L37.182 132.694ZM40.293 134.504C41.4321 134.504 42.3707 134.006 42.9658 133.032C43.5119 132.138 43.7188 130.925 43.7188 129.531H41.7188C41.7188 130.786 41.5213 131.56 41.2588 131.99C41.0453 132.339 40.771 132.504 40.293 132.504V134.504ZM55.5625 136L54.6727 136.456L54.9515 137H55.5625V136ZM55.2227 134.863L56.2108 134.71L55.8874 132.625L54.4784 134.195L55.2227 134.863ZM48.9297 135.156L48.2671 135.905L48.2707 135.908L48.9297 135.156ZM49.1992 129.344L48.6156 128.532L48.6126 128.534L49.1992 129.344ZM53.5234 128.254L53.5234 127.254L53.5193 127.254L53.5234 128.254ZM55.082 128.254V129.254H56.082V128.254H55.082ZM54.625 126.121L53.8609 126.766L53.8693 126.776L54.625 126.121ZM51.8594 126.004L51.2191 125.236L51.2101 125.243L51.8594 126.004ZM51.3789 127.129V128.129H52.3789V127.129H51.3789ZM47.9922 127.129H46.9922V128.129H47.9922V127.129ZM50.5938 123.625L50.9845 124.546L50.9918 124.542L50.5938 123.625ZM57.0977 124.27L56.4442 125.027L56.4511 125.032L57.0977 124.27ZM58.4805 133.07H57.4804L57.4805 133.077L58.4805 133.07ZM58.9844 135.801H59.9844V135.551L59.8673 135.331L58.9844 135.801ZM58.9844 136V137H59.9844V136H58.9844ZM54.1445 133.316L54.6048 134.204L54.6113 134.201L54.6177 134.197L54.1445 133.316ZM55.082 132.414L55.9613 132.89L56.082 132.668V132.414H55.082ZM55.082 130.234H56.082V129.234H55.082V130.234ZM51.1094 131.992L50.1137 131.899L50.1121 131.916L50.1111 131.933L51.1094 131.992ZM51.0977 132.191L50.0994 132.133L50.0977 132.162V132.191H51.0977ZM56.4523 135.544C56.3582 135.36 56.27 135.091 56.2108 134.71L54.2345 135.017C54.316 135.542 54.4543 136.03 54.6727 136.456L56.4523 135.544ZM54.4784 134.195C53.862 134.882 53.0739 135.234 52.0234 135.234V137.234C53.5979 137.234 54.9427 136.672 55.9669 135.531L54.4784 134.195ZM52.0234 135.234C50.9878 135.234 50.2013 134.941 49.5887 134.404L48.2707 135.908C49.2987 136.809 50.5747 137.234 52.0234 137.234V135.234ZM49.5923 134.407C48.9964 133.88 48.7109 133.247 48.7109 132.438H46.7109C46.7109 133.815 47.238 134.995 48.2671 135.905L49.5923 134.407ZM48.7109 132.438C48.7109 131.378 49.0812 130.664 49.7859 130.154L48.6126 128.534C47.3328 129.461 46.7109 130.809 46.7109 132.438H48.7109ZM49.7829 130.156C50.546 129.607 51.7496 129.261 53.5276 129.254L53.5193 127.254C51.5316 127.262 49.8524 127.643 48.6156 128.532L49.7829 130.156ZM53.5234 129.254H55.082V127.254H53.5234V129.254ZM56.082 128.254V127.527H54.082V128.254H56.082ZM56.082 127.527C56.082 126.765 55.8805 126.043 55.3807 125.466L53.8693 126.776C53.9788 126.902 54.082 127.118 54.082 127.527H56.082ZM55.389 125.476C54.8339 124.819 54.0246 124.594 53.207 124.594V126.594C53.6864 126.594 53.8224 126.721 53.861 126.766L55.389 125.476ZM53.207 124.594C52.4817 124.594 51.7795 124.769 51.2192 125.236L52.4996 126.772C52.5955 126.692 52.7918 126.594 53.207 126.594V124.594ZM51.2101 125.243C50.6364 125.733 50.3789 126.403 50.3789 127.129H52.3789C52.3789 126.902 52.4417 126.822 52.5086 126.764L51.2101 125.243ZM51.3789 126.129H47.9922V128.129H51.3789V126.129ZM48.9922 127.129C48.9922 126.617 49.1454 126.14 49.4815 125.677L47.8623 124.503C47.2921 125.289 46.9922 126.172 46.9922 127.129H48.9922ZM49.4815 125.677C49.8113 125.222 50.2957 124.838 50.9845 124.545L50.203 122.705C49.2356 123.115 48.4387 123.708 47.8623 124.503L49.4815 125.677ZM50.9918 124.542C51.6777 124.245 52.4691 124.086 53.3828 124.086V122.086C52.234 122.086 51.1661 122.287 50.1957 122.708L50.9918 124.542ZM53.3828 124.086C54.7775 124.086 55.7597 124.436 56.4442 125.026L57.7511 123.513C56.6075 122.525 55.1132 122.086 53.3828 122.086V124.086ZM56.4511 125.032C57.1084 125.589 57.4805 126.389 57.4805 127.574H59.4805C59.4805 125.916 58.9307 124.512 57.7442 123.507L56.4511 125.032ZM57.4805 127.574V133.07H59.4805V127.574H57.4805ZM57.4805 133.077C57.4887 134.34 57.6611 135.442 58.1014 136.27L59.8673 135.331C59.6514 134.925 59.4879 134.207 59.4804 133.064L57.4805 133.077ZM57.9844 135.801V136H59.9844V135.801H57.9844ZM58.9844 135H55.5625V137H58.9844V135ZM52.7617 134.645C53.4133 134.645 54.0333 134.501 54.6048 134.204L53.6842 132.429C53.412 132.57 53.1101 132.645 52.7617 132.645V134.645ZM54.6177 134.197C55.1897 133.89 55.6541 133.458 55.9613 132.89L54.2027 131.938C54.1037 132.121 53.9431 132.289 53.6714 132.435L54.6177 134.197ZM56.082 132.414V130.234H54.082V132.414H56.082ZM55.082 129.234H53.8164V131.234H55.082V129.234ZM53.8164 129.234C52.8776 129.234 52.0053 129.392 51.3236 129.835C50.5895 130.312 50.1938 131.042 50.1137 131.899L52.105 132.085C52.1344 131.771 52.2444 131.622 52.4128 131.513C52.6334 131.369 53.0599 131.234 53.8164 131.234V129.234ZM50.1111 131.933L50.0994 132.133L52.0959 132.25L52.1076 132.051L50.1111 131.933ZM50.0977 132.191C50.0977 132.878 50.3528 133.498 50.8655 133.97L52.2204 132.499C52.1394 132.424 52.0977 132.348 52.0977 132.191H50.0977ZM50.8655 133.97C51.394 134.457 52.0672 134.645 52.7617 134.645V132.645C52.425 132.645 52.2857 132.559 52.2204 132.499L50.8655 133.97ZM68.207 126.496L68.0727 127.487L69.1907 127.639L69.2069 126.51L68.207 126.496ZM64.4688 127.703L63.5601 127.286L63.4688 127.484V127.703H64.4688ZM64.4688 136V137H65.4688V136H64.4688ZM61.082 136H60.082V137H61.082V136ZM61.082 123.32V122.32H60.082V123.32H61.082ZM64.2812 123.32L65.2793 123.258L65.2212 122.32H64.2812V123.32ZM64.375 124.832L63.3769 124.894L63.5805 128.176L65.2386 125.336L64.375 124.832ZM68.2539 123.238L69.2538 123.253L69.2646 122.504L68.5496 122.283L68.2539 123.238ZM68.3414 125.505C67.8492 125.438 67.3965 125.402 66.9883 125.402V127.402C67.2832 127.402 67.643 127.429 68.0727 127.487L68.3414 125.505ZM66.9883 125.402C65.475 125.402 64.1788 125.939 63.5601 127.286L65.3774 128.121C65.5555 127.733 65.9391 127.402 66.9883 127.402V125.402ZM63.4688 127.703V136H65.4688V127.703H63.4688ZM64.4688 135H61.082V137H64.4688V135ZM62.082 136V123.32H60.082V136H62.082ZM61.082 124.32H64.2812V122.32H61.082V124.32ZM63.2832 123.382L63.3769 124.894L65.3731 124.77L65.2793 123.258L63.2832 123.382ZM65.2386 125.336C65.765 124.435 66.4003 124.086 67.1992 124.086V122.086C65.5919 122.086 64.3444 122.901 63.5114 124.328L65.2386 125.336ZM67.1992 124.086C67.4831 124.086 67.7342 124.124 67.9582 124.194L68.5496 122.283C68.1173 122.149 67.6653 122.086 67.1992 122.086V124.086ZM67.254 123.224L67.2071 126.482L69.2069 126.51L69.2538 123.253L67.254 123.224ZM74.4531 130.914L75.2952 130.375L74.6248 129.328L73.746 130.207L74.4531 130.914ZM73.2344 132.133L72.5273 131.426L72.2344 131.719V132.133H73.2344ZM73.2344 136V137H74.2344V136H73.2344ZM69.8477 136H68.8477V137H69.8477V136ZM69.8477 118V117H68.8477V118H69.8477ZM73.2344 118H74.2344V117H73.2344V118ZM73.2344 127.973H72.2344V130.887L74.0237 128.587L73.2344 127.973ZM73.8906 127.129L73.1296 126.48L73.115 126.497L73.1013 126.515L73.8906 127.129ZM77.1367 123.32V122.32H76.6751L76.3756 122.672L77.1367 123.32ZM81.2031 123.32L81.9587 123.975L83.3936 122.32H81.2031V123.32ZM76.6211 128.605L75.8655 127.95L75.3639 128.529L75.7917 129.164L76.6211 128.605ZM81.6016 136V137H83.4808L82.431 135.441L81.6016 136ZM77.7109 136L76.8689 136.539L77.1639 137H77.7109V136ZM73.746 130.207L72.5273 131.426L73.9415 132.84L75.1602 131.621L73.746 130.207ZM72.2344 132.133V136H74.2344V132.133H72.2344ZM73.2344 135H69.8477V137H73.2344V135ZM70.8477 136V118H68.8477V136H70.8477ZM69.8477 119H73.2344V117H69.8477V119ZM72.2344 118V127.973H74.2344V118H72.2344ZM74.0237 128.587L74.68 127.743L73.1013 126.515L72.445 127.359L74.0237 128.587ZM74.6517 127.778L77.8978 123.969L76.3756 122.672L73.1296 126.48L74.6517 127.778ZM77.1367 124.32H81.2031V122.32H77.1367V124.32ZM80.4475 122.665L75.8655 127.95L77.3767 129.261L81.9587 123.975L80.4475 122.665ZM75.7917 129.164L80.7722 136.559L82.431 135.441L77.4505 128.047L75.7917 129.164ZM81.6016 135H77.7109V137H81.6016V135ZM78.553 135.461L75.2952 130.375L73.6111 131.453L76.8689 136.539L78.553 135.461ZM85.8438 123.32L86.841 123.246L86.7721 122.32H85.8438V123.32ZM85.9492 124.738L84.952 124.812L85.1381 127.315L86.7242 125.37L85.9492 124.738ZM92.957 125.02L92.053 125.447L92.7941 127.015L93.7798 125.588L92.957 125.02ZM99.8359 124.293L99.0683 124.934L99.0714 124.938L99.8359 124.293ZM100.844 136V137H101.844V136H100.844ZM97.4453 136H96.4453V137H97.4453V136ZM97.0234 126.344L96.2566 126.986L96.2642 126.995L97.0234 126.344ZM93.4258 127.293L92.4983 126.919L92.4255 127.1L92.4258 127.294L93.4258 127.293ZM93.4375 136V137H94.4388L94.4375 135.999L93.4375 136ZM90.0508 136H89.0508V137H90.0508V136ZM86.0547 127.035L85.1745 126.561L85.0547 126.783V127.035H86.0547ZM86.0547 136V137H87.0547V136H86.0547ZM82.668 136H81.668V137H82.668V136ZM82.668 123.32V122.32H81.668V123.32H82.668ZM84.8465 123.394L84.952 124.812L86.9465 124.664L86.841 123.246L84.8465 123.394ZM86.7242 125.37C87.4165 124.521 88.3364 124.086 89.5938 124.086V122.086C87.7886 122.086 86.2788 122.752 85.1743 124.106L86.7242 125.37ZM89.5938 124.086C90.2805 124.086 90.7868 124.221 91.1608 124.436C91.5263 124.646 91.8261 124.967 92.053 125.447L93.8611 124.592C93.4786 123.783 92.9131 123.137 92.1576 122.702C91.4105 122.273 90.5398 122.086 89.5938 122.086V124.086ZM93.7798 125.588C94.4724 124.585 95.4254 124.086 96.7656 124.086V122.086C94.809 122.086 93.2229 122.876 92.1343 124.451L93.7798 125.588ZM96.7656 124.086C97.9431 124.086 98.6418 124.423 99.0683 124.934L100.604 123.652C99.6863 122.553 98.3382 122.086 96.7656 122.086V124.086ZM99.0714 124.938C99.5276 125.479 99.8438 126.407 99.8438 127.902H101.844C101.844 126.179 101.488 124.701 100.6 123.648L99.0714 124.938ZM99.8438 127.902V136H101.844V127.902H99.8438ZM100.844 135H97.4453V137H100.844V135ZM98.4453 136V127.914H96.4453V136H98.4453ZM98.4453 127.914C98.4453 127.103 98.2936 126.289 97.7827 125.693L96.2642 126.995C96.3158 127.055 96.4453 127.287 96.4453 127.914H98.4453ZM97.7902 125.702C97.2272 125.029 96.3607 124.84 95.5352 124.84V126.84C95.8178 126.84 96.0045 126.874 96.1197 126.913C96.2281 126.95 96.2551 126.984 96.2567 126.986L97.7902 125.702ZM95.5352 124.84C94.8639 124.84 94.2268 125.002 93.6788 125.38C93.1328 125.756 92.7505 126.294 92.4983 126.919L94.3532 127.667C94.4917 127.324 94.6563 127.135 94.8134 127.027C94.9685 126.92 95.1907 126.84 95.5352 126.84V124.84ZM92.4258 127.294L92.4375 136.001L94.4375 135.999L94.4258 127.292L92.4258 127.294ZM93.4375 135H90.0508V137H93.4375V135ZM91.0508 136V127.926H89.0508V136H91.0508ZM91.0508 127.926C91.0508 127.101 90.8959 126.271 90.3675 125.671L88.8668 126.993C88.9166 127.05 89.0508 127.282 89.0508 127.926H91.0508ZM90.3675 125.671C89.8009 125.028 88.9563 124.84 88.1406 124.84V126.84C88.7155 126.84 88.8554 126.98 88.8668 126.993L90.3675 125.671ZM88.1406 124.84C87.5205 124.84 86.9278 124.969 86.4012 125.271C85.8715 125.575 85.4661 126.02 85.1745 126.561L86.9349 127.51C87.073 127.254 87.2301 127.101 87.3956 127.006C87.5644 126.91 87.7998 126.84 88.1406 126.84V124.84ZM85.0547 127.035V136H87.0547V127.035H85.0547ZM86.0547 135H82.668V137H86.0547V135ZM83.668 136V123.32H81.668V136H83.668ZM82.668 124.32H85.8438V122.32H82.668V124.32ZM104.746 134.523L104.046 135.238L104.049 135.24L104.746 134.523ZM103.738 126.227L104.635 126.668L104.637 126.665L103.738 126.227ZM105.824 123.906L106.339 124.764L106.341 124.762L105.824 123.906ZM113.008 124.727L112.267 125.398L112.27 125.401L113.008 124.727ZM114.508 130.762V131.762H115.508V130.762H114.508ZM106.434 130.762V129.762H105.293L105.442 130.893L106.434 130.762ZM107.418 132.754L106.743 133.492L106.748 133.497L107.418 132.754ZM112.574 132.086L113.32 131.42L112.521 130.525L111.785 131.472L112.574 132.086ZM114.238 133.949L115.055 134.526L115.514 133.876L114.984 133.283L114.238 133.949ZM112.176 135.637L112.593 136.545L112.6 136.542L112.176 135.637ZM107.266 126.508L106.534 125.826L106.527 125.833L107.266 126.508ZM106.469 128.453L105.478 128.316L105.32 129.453H106.469V128.453ZM111.18 128.453V129.453H112.18V128.453H111.18ZM111.18 128.184H112.18V128.173L112.179 128.163L111.18 128.184ZM110.57 126.449L109.843 127.135L109.849 127.142L110.57 126.449ZM109.293 135.234C107.655 135.234 106.403 134.74 105.444 133.807L104.049 135.24C105.433 136.588 107.212 137.234 109.293 137.234V135.234ZM105.446 133.809C104.506 132.888 104 131.643 104 129.965H102C102 132.084 102.658 133.878 104.046 135.238L105.446 133.809ZM104 129.965V129.637H102V129.965H104ZM104 129.637C104 128.495 104.22 127.512 104.635 126.668L102.841 125.785C102.272 126.941 102 128.232 102 129.637H104ZM104.637 126.665C105.05 125.819 105.618 125.196 106.339 124.764L105.31 123.049C104.234 123.694 103.41 124.619 102.84 125.788L104.637 126.665ZM106.341 124.762C107.077 124.318 107.926 124.086 108.918 124.086V122.086C107.597 122.086 106.384 122.401 105.308 123.05L106.341 124.762ZM108.918 124.086C110.424 124.086 111.498 124.55 112.267 125.398L113.748 124.055C112.533 122.715 110.881 122.086 108.918 122.086V124.086ZM112.27 125.401C113.049 126.254 113.508 127.531 113.508 129.379H115.508C115.508 127.211 114.966 125.387 113.746 124.052L112.27 125.401ZM113.508 129.379V130.762H115.508V129.379H113.508ZM114.508 129.762H106.434V131.762H114.508V129.762ZM105.442 130.893C105.578 131.923 106 132.813 106.743 133.492L108.093 132.016C107.742 131.695 107.508 131.257 107.425 130.631L105.442 130.893ZM106.748 133.497C107.511 134.184 108.459 134.504 109.516 134.504V132.504C108.885 132.504 108.434 132.324 108.088 132.011L106.748 133.497ZM109.516 134.504C111.097 134.504 112.421 133.913 113.364 132.699L111.785 131.472C111.258 132.15 110.543 132.504 109.516 132.504V134.504ZM111.828 132.752L113.492 134.615L114.984 133.283L113.32 131.42L111.828 132.752ZM113.422 133.372C113.023 133.937 112.476 134.392 111.752 134.731L112.6 136.542C113.61 136.069 114.438 135.399 115.055 134.526L113.422 133.372ZM111.758 134.728C111.035 135.06 110.219 135.234 109.293 135.234V137.234C110.476 137.234 111.582 137.01 112.593 136.545L111.758 134.728ZM108.906 124.828C107.983 124.828 107.162 125.152 106.534 125.826L107.998 127.189C108.213 126.958 108.486 126.828 108.906 126.828V124.828ZM106.527 125.833C105.933 126.483 105.613 127.347 105.478 128.316L107.459 128.591C107.559 127.872 107.77 127.438 108.004 127.182L106.527 125.833ZM106.469 129.453H111.18V127.453H106.469V129.453ZM112.18 128.453V128.184H110.18V128.453H112.18ZM112.179 128.163C112.16 127.247 111.907 126.397 111.291 125.756L109.849 127.142C110.015 127.314 110.168 127.621 110.18 128.204L112.179 128.163ZM111.298 125.763C110.671 125.099 109.823 124.828 108.906 124.828V126.828C109.427 126.828 109.688 126.971 109.843 127.135L111.298 125.763Z" fill="#CECECE"/>
<path d="M11.3656 24.9521L11.1463 24.511L11.3656 24.9521L36.142 12.6352V98.5366L11.241 112.623C10.4868 112.992 9.70323 112.844 9.07861 112.318C8.44197 111.782 7.97534 110.848 7.97534 109.699V31.2357C7.97534 31.2356 7.97534 31.2356 7.97534 31.2356C7.9756 29.8649 8.30661 28.5323 8.91793 27.4103C9.52923 26.2884 10.3867 25.4388 11.3656 24.9521ZM108.71 12.5332C109.464 12.164 110.247 12.3126 110.872 12.8383C111.509 13.3742 111.975 14.3081 111.975 15.4577V93.9209C111.975 95.2916 111.644 96.6244 111.033 97.7464C110.422 98.8683 109.564 99.7179 108.585 100.204L108.585 100.204L83.8087 112.521V26.6198L108.71 12.5332ZM42.9753 12.5766L76.9753 26.6623V112.58L42.9753 98.4941V12.5766Z" fill="#1D1935" stroke="white"/>
<path fill-rule="evenodd" clip-rule="evenodd" d="M76.9354 92.3428C56.847 103.941 31.8218 97.1955 20.5 77.5855C9.17815 57.9755 16.2847 32.6765 36.3731 21.0785C55.3323 10.1324 79.0786 15.3027 91.2062 32.4042C92.4487 33.8022 93.5633 35.6009 94.5252 37.8509C94.6754 38.2011 94.8211 38.5514 94.963 38.9013C96.8373 42.9735 98.7304 48.0425 99.1742 52.3307C103.466 80.5738 84.5986 104.607 84.5986 104.607L77.372 92.0907C77.2495 92.1631 77.0589 92.2715 76.9354 92.3428Z" fill="#36E491"/>
<circle cx="56.4753" cy="56.5782" r="13" fill="white"/>
</svg>
