<svg width="122" height="140" viewBox="0 0 122 140" fill="none" xmlns="http://www.w3.org/2000/svg">
<path d="M8.64844 135C8.49219 134.695 8.37891 134.316 8.30859 133.863C7.48828 134.777 6.42188 135.234 5.10938 135.234C3.86719 135.234 2.83594 134.875 2.01562 134.156C1.20312 133.438 0.796875 132.531 0.796875 131.438C0.796875 130.094 1.29297 129.062 2.28516 128.344C3.28516 127.625 4.72656 127.262 6.60938 127.254H8.16797V126.527C8.16797 125.941 8.01562 125.473 7.71094 125.121C7.41406 124.77 6.94141 124.594 6.29297 124.594C5.72266 124.594 5.27344 124.73 4.94531 125.004C4.625 125.277 4.46484 125.652 4.46484 126.129H1.07812C1.07812 125.395 1.30469 124.715 1.75781 124.09C2.21094 123.465 2.85156 122.977 3.67969 122.625C4.50781 122.266 5.4375 122.086 6.46875 122.086C8.03125 122.086 9.26953 122.48 10.1836 123.27C11.1055 124.051 11.5664 125.152 11.5664 126.574V132.07C11.5742 133.273 11.7422 134.184 12.0703 134.801V135H8.64844ZM5.84766 132.645C6.34766 132.645 6.80859 132.535 7.23047 132.316C7.65234 132.09 7.96484 131.789 8.16797 131.414V129.234H6.90234C5.20703 129.234 4.30469 129.82 4.19531 130.992L4.18359 131.191C4.18359 131.613 4.33203 131.961 4.62891 132.234C4.92578 132.508 5.33203 132.645 5.84766 132.645ZM25.582 128.777C25.582 130.73 25.1367 132.297 24.2461 133.477C23.3633 134.648 22.168 135.234 20.6602 135.234C19.3789 135.234 18.3438 134.789 17.5547 133.898V139.875H14.168V122.32H17.3086L17.4258 123.562C18.2461 122.578 19.3164 122.086 20.6367 122.086C22.1992 122.086 23.4141 122.664 24.2812 123.82C25.1484 124.977 25.582 126.57 25.582 128.602V128.777ZM22.1953 128.531C22.1953 127.352 21.9844 126.441 21.5625 125.801C21.1484 125.16 20.543 124.84 19.7461 124.84C18.6836 124.84 17.9531 125.246 17.5547 126.059V131.25C17.9688 132.086 18.707 132.504 19.7695 132.504C21.3867 132.504 22.1953 131.18 22.1953 128.531ZM39.1055 128.777C39.1055 130.73 38.6602 132.297 37.7695 133.477C36.8867 134.648 35.6914 135.234 34.1836 135.234C32.9023 135.234 31.8672 134.789 31.0781 133.898V139.875H27.6914V122.32H30.832L30.9492 123.562C31.7695 122.578 32.8398 122.086 34.1602 122.086C35.7227 122.086 36.9375 122.664 37.8047 123.82C38.6719 124.977 39.1055 126.57 39.1055 128.602V128.777ZM35.7188 128.531C35.7188 127.352 35.5078 126.441 35.0859 125.801C34.6719 125.16 34.0664 124.84 33.2695 124.84C32.207 124.84 31.4766 125.246 31.0781 126.059V131.25C31.4922 132.086 32.2305 132.504 33.293 132.504C34.9102 132.504 35.7188 131.18 35.7188 128.531ZM48.5625 135C48.4062 134.695 48.293 134.316 48.2227 133.863C47.4023 134.777 46.3359 135.234 45.0234 135.234C43.7812 135.234 42.75 134.875 41.9297 134.156C41.1172 133.438 40.7109 132.531 40.7109 131.438C40.7109 130.094 41.207 129.062 42.1992 128.344C43.1992 127.625 44.6406 127.262 46.5234 127.254H48.082V126.527C48.082 125.941 47.9297 125.473 47.625 125.121C47.3281 124.77 46.8555 124.594 46.207 124.594C45.6367 124.594 45.1875 124.73 44.8594 125.004C44.5391 125.277 44.3789 125.652 44.3789 126.129H40.9922C40.9922 125.395 41.2188 124.715 41.6719 124.09C42.125 123.465 42.7656 122.977 43.5938 122.625C44.4219 122.266 45.3516 122.086 46.3828 122.086C47.9453 122.086 49.1836 122.48 50.0977 123.27C51.0195 124.051 51.4805 125.152 51.4805 126.574V132.07C51.4883 133.273 51.6562 134.184 51.9844 134.801V135H48.5625ZM45.7617 132.645C46.2617 132.645 46.7227 132.535 47.1445 132.316C47.5664 132.09 47.8789 131.789 48.082 131.414V129.234H46.8164C45.1211 129.234 44.2188 129.82 44.1094 130.992L44.0977 131.191C44.0977 131.613 44.2461 131.961 44.543 132.234C44.8398 132.508 45.2461 132.645 45.7617 132.645ZM61.207 125.496C60.7461 125.434 60.3398 125.402 59.9883 125.402C58.707 125.402 57.8672 125.836 57.4688 126.703V135H54.082V122.32H57.2812L57.375 123.832C58.0547 122.668 58.9961 122.086 60.1992 122.086C60.5742 122.086 60.9258 122.137 61.2539 122.238L61.207 125.496ZM67.4531 129.914L66.2344 131.133V135H62.8477V117H66.2344V126.973L66.8906 126.129L70.1367 122.32H74.2031L69.6211 127.605L74.6016 135H70.7109L67.4531 129.914ZM83.0156 135C82.8594 134.695 82.7461 134.316 82.6758 133.863C81.8555 134.777 80.7891 135.234 79.4766 135.234C78.2344 135.234 77.2031 134.875 76.3828 134.156C75.5703 133.438 75.1641 132.531 75.1641 131.438C75.1641 130.094 75.6602 129.062 76.6523 128.344C77.6523 127.625 79.0938 127.262 80.9766 127.254H82.5352V126.527C82.5352 125.941 82.3828 125.473 82.0781 125.121C81.7812 124.77 81.3086 124.594 80.6602 124.594C80.0898 124.594 79.6406 124.73 79.3125 125.004C78.9922 125.277 78.832 125.652 78.832 126.129H75.4453C75.4453 125.395 75.6719 124.715 76.125 124.09C76.5781 123.465 77.2188 122.977 78.0469 122.625C78.875 122.266 79.8047 122.086 80.8359 122.086C82.3984 122.086 83.6367 122.48 84.5508 123.27C85.4727 124.051 85.9336 125.152 85.9336 126.574V132.07C85.9414 133.273 86.1094 134.184 86.4375 134.801V135H83.0156ZM80.2148 132.645C80.7148 132.645 81.1758 132.535 81.5977 132.316C82.0195 132.09 82.332 131.789 82.5352 131.414V129.234H81.2695C79.5742 129.234 78.6719 129.82 78.5625 130.992L78.5508 131.191C78.5508 131.613 78.6992 131.961 78.9961 132.234C79.293 132.508 79.6992 132.645 80.2148 132.645ZM91.7109 122.32L91.8164 123.738C92.7148 122.637 93.9297 122.086 95.4609 122.086C97.0938 122.086 98.2148 122.73 98.8242 124.02C99.7148 122.73 100.984 122.086 102.633 122.086C104.008 122.086 105.031 122.488 105.703 123.293C106.375 124.09 106.711 125.293 106.711 126.902V135H103.312V126.914C103.312 126.195 103.172 125.672 102.891 125.344C102.609 125.008 102.113 124.84 101.402 124.84C100.387 124.84 99.6836 125.324 99.293 126.293L99.3047 135H95.918V126.926C95.918 126.191 95.7734 125.66 95.4844 125.332C95.1953 125.004 94.7031 124.84 94.0078 124.84C93.0469 124.84 92.3516 125.238 91.9219 126.035V135H88.5352V122.32H91.7109ZM115.16 135.234C113.301 135.234 111.785 134.664 110.613 133.523C109.449 132.383 108.867 130.863 108.867 128.965V128.637C108.867 127.363 109.113 126.227 109.605 125.227C110.098 124.219 110.793 123.445 111.691 122.906C112.598 122.359 113.629 122.086 114.785 122.086C116.52 122.086 117.883 122.633 118.875 123.727C119.875 124.82 120.375 126.371 120.375 128.379V129.762H112.301C112.41 130.59 112.738 131.254 113.285 131.754C113.84 132.254 114.539 132.504 115.383 132.504C116.688 132.504 117.707 132.031 118.441 131.086L120.105 132.949C119.598 133.668 118.91 134.23 118.043 134.637C117.176 135.035 116.215 135.234 115.16 135.234ZM114.773 124.828C114.102 124.828 113.555 125.055 113.133 125.508C112.719 125.961 112.453 126.609 112.336 127.453H117.047V127.184C117.031 126.434 116.828 125.855 116.438 125.449C116.047 125.035 115.492 124.828 114.773 124.828Z" fill="#36E491"/>
<path d="M11.3656 24.9521L11.1431 24.5044L11.3656 24.9521L36.142 12.6352V98.5366L11.241 112.623C10.4868 112.992 9.70323 112.844 9.07861 112.318C8.44197 111.782 7.97534 110.848 7.97534 109.699V31.2357C7.97534 31.2357 7.97534 31.2356 7.97534 31.2356C7.9756 29.865 8.30661 28.5323 8.91793 27.4104C9.52923 26.2885 10.3867 25.4388 11.3656 24.9521ZM108.585 100.204L108.585 100.204L83.8087 112.521V26.6199L108.71 12.5332C109.464 12.164 110.247 12.3126 110.872 12.8384C111.509 13.3742 111.975 14.3081 111.975 15.4578V93.9209C111.975 95.2916 111.644 96.6244 111.033 97.7464C110.422 98.8683 109.564 99.7179 108.585 100.204ZM42.9753 12.5766L76.9753 26.6623V112.58L42.9753 98.4942V12.5766Z" fill="#1D1935" stroke="white"/>
<path fill-rule="evenodd" clip-rule="evenodd" d="M76.9354 92.3429C56.847 103.941 31.8218 97.1956 20.5 77.5855C9.17815 57.9755 16.2847 32.6765 36.3731 21.0785C55.3323 10.1324 79.0786 15.3027 91.2062 32.4042C92.4487 33.8023 93.5633 35.6009 94.5252 37.8509C94.6754 38.2011 94.8211 38.5514 94.963 38.9013C96.8373 42.9736 98.7304 48.0425 99.1742 52.3307C103.466 80.5738 84.5986 104.608 84.5986 104.608L77.372 92.0908C77.2495 92.1631 77.0589 92.2716 76.9354 92.3429Z" fill="#36E491"/>
<circle cx="56.4753" cy="56.5782" r="13" fill="white"/>
</svg>
